<?xml version="1.0" encoding="UTF-8"?>
<!-- Created with Inkscape (http://www.inkscape.org/) -->
<svg width="512" height="512" version="1.1" viewBox="0 0 135.47 135.47" xmlns="http://www.w3.org/2000/svg" xmlns:xlink="http://www.w3.org/1999/xlink">
 <defs>
  <linearGradient id="linearGradient88821">
   <stop stop-color="#502d16" offset="0"/>
   <stop stop-color="#28170b" offset="1"/>
  </linearGradient>
  <linearGradient id="linearGradient74508">
   <stop stop-color="#e8e2ce" offset="0"/>
   <stop stop-color="#957d66" offset="1"/>
  </linearGradient>
  <linearGradient id="linearGradient72466">
   <stop stop-color="#957d66" offset="0"/>
   <stop stop-color="#e8e2ce" offset="1"/>
  </linearGradient>
  <linearGradient id="linearGradient72468" x1="301.38" x2="438.73" y1="632.54" y2="632.54" gradientTransform="matrix(.34044 0 0 .34044 -63.954 -134.76)" gradientUnits="userSpaceOnUse" xlink:href="#linearGradient72466"/>
  <linearGradient id="linearGradient74510" x1="194.21" x2="352.69" y1="520.25" y2="612.75" gradientTransform="matrix(.34044 0 0 .34044 -63.954 -134.76)" gradientUnits="userSpaceOnUse" xlink:href="#linearGradient74508"/>
  <linearGradient id="linearGradient78504" x1="306.02" x2="369.4" y1="475.01" y2="531.48" gradientTransform="matrix(.34044 0 0 .37107 -63.954 -148.05)" gradientUnits="userSpaceOnUse" xlink:href="#linearGradient74508"/>
  <linearGradient id="linearGradient79088" x1="100.71" x2="100.2" y1="119.12" y2="147.56" gradientTransform="matrix(1.2867 -.0083713 .0083713 1.2867 -65.058 -133.91)" gradientUnits="userSpaceOnUse" xlink:href="#linearGradient72466"/>
  <linearGradient id="linearGradient85735" x1="521.74" x2="567.46" y1="624.44" y2="606.87" gradientTransform="matrix(.34044 0 0 .34044 -63.954 -134.76)" gradientUnits="userSpaceOnUse" xlink:href="#linearGradient72466"/>
  <linearGradient id="linearGradient85990" x1="351.58" x2="571.06" y1="697.67" y2="587" gradientTransform="matrix(.34044 0 0 .34044 -63.954 -134.76)" gradientUnits="userSpaceOnUse" xlink:href="#linearGradient72466"/>
  <linearGradient id="linearGradient90436" x1="127.67" x2="127.67" y1="177.17" y2="189.73" gradientTransform="matrix(1.2867 0 0 1.2867 -63.954 -134.76)" gradientUnits="userSpaceOnUse" xlink:href="#linearGradient88821"/>
  <linearGradient id="linearGradient90472" x1="119.2" x2="119.13" y1="152.39" y2="144.51" gradientTransform="matrix(1.2867 0 0 1.2867 -64.091 -134.76)" gradientUnits="userSpaceOnUse" xlink:href="#linearGradient88821"/>
 </defs>
 <g>
  <path d="m79.051 68.566s8.6137-9.1996 22.507-9.1609c0 0 3.4295-3.5704-6.9529-7.4227-10.382-3.8523-16.866 6.812-16.866 6.812s-1.7893 4.416 1.3113 9.7716z" fill="url(#linearGradient90472)"/>
  <path d="m87.178 95.25s3.6246 7.1301 3.7939 9.9943c0.1931 3.2664 7.5582 4.0426 11.803 3.8646 4.2194-0.177 8.1274-1.8792 8.5502-9.3488 0.42282-7.4697 0.62086-10.299 0.62086-10.299l0.55361-3.6542z" fill="url(#linearGradient90436)"/>
  <g fill-opacity=".50103" stroke-linecap="round" stroke-linejoin="round" stroke-width="6.6146">
   <path d="m105.76 60.179c0.15144 0.04519 0.26634 0.087 0.40692 0.13166-0.063-0.02093-0.12675-0.0441-0.18949-0.06451-0.073-0.02376-0.14472-0.04411-0.21743-0.06715z" style="paint-order:stroke fill markers"/>
   <path d="m66.163 101.76c-0.856 0.24147-1.7085 0.45574-2.55 0.63701 0.42073-0.0906 0.84402-0.18936 1.2694-0.2959 0.42532-0.10654 0.85266-0.22038 1.2807-0.34111z" style="paint-order:stroke fill markers"/>
   <path d="m68.734 100.96c-0.85514 0.28797-1.7146 0.55645-2.5706 0.79791 0.428-0.12074 0.85723-0.24845 1.286-0.38167 0.42874-0.13321 0.85707-0.27226 1.2846-0.41624z" style="paint-order:stroke fill markers"/>
   <path d="m71.278 100.04c-0.83889 0.3208-1.6896 0.6283-2.5447 0.91628 0.42757-0.14399 0.85419-0.29312 1.2787-0.44617 0.42446-0.15304 0.84658-0.3097 1.266-0.47011z" style="paint-order:stroke fill markers"/>
   <path d="m73.752 99.047c-0.80724 0.33992-1.6346 0.67395-2.4735 0.99473 0.41944-0.16039 0.83624-0.32401 1.2487-0.49004 0.41249-0.16603 0.82118-0.33473 1.2248-0.50469z" style="paint-order:stroke fill markers"/>
  </g>
  <path d="m5.4291 58.14c6.8371 20.137 22.715 35.907 42.899 42.606 0.32703 0.0893 0.69949 0.18862 1.0114 0.27462 5.5327 1.6335 12.362 1.9432 16.823 0.7354 0.85599-0.24146 1.7155-0.50994 2.5706-0.79791 0.85513-0.28798 1.7058-0.59548 2.5447-0.91628 0.83888-0.32078 1.6663-0.65481 2.4735-0.99473 0.80724-0.33991 1.5943-0.68595 2.3545-1.0313 0.76021-0.34535 1.4932-0.69022 2.1909-1.0273 1.3956-0.67418 2.6508-1.3181 3.7043-1.8771 1.0535-0.559 1.9052-1.0328 2.4935-1.3671 0.58833-0.33428 0.91361-0.52864 0.91361-0.52864s0.48806-0.30516 0.48806-0.30519c-0.22477-0.29158-0.69471-0.40488-0.9043-0.70416-0.23919-0.34155-0.46872-0.68774-0.68886-1.038-0.22015-0.35021-0.43114-0.70448-0.63301-1.0619-0.20187-0.35741-0.39479-0.71803-0.57915-1.0812-0.18437-0.36314-0.36032-0.72906-0.52796-1.0965-0.16764-0.36742-0.32708-0.7362-0.47875-1.1064-0.15167-0.37024-0.29572-0.7415-0.4322-1.1131-0.13648-0.37159-0.26559-0.74359-0.38765-1.1151-0.12207-0.37149-0.23668-0.7425-0.3451-1.1124-0.10842-0.36993-0.21033-0.73887-0.30587-1.1058-0.09554-0.36691-0.18453-0.73204-0.26797-1.0945-0.08344-0.36243-0.16129-0.72203-0.23339-1.0785-0.07211-0.35649-0.13861-0.71014-0.20015-1.0592-0.06154-0.34909-0.11847-0.69373-0.17022-1.034-0.1035-0.68046-0.18769-1.3419-0.25666-1.9782-0.06897-0.63627-0.12231-1.2475-0.16291-1.8279-0.0406-0.5804-0.0687-1.1302-0.0871-1.643-0.01841-0.51286-0.02687-0.98864-0.02925-1.4223-4.1e-5 -0.0072 3.7e-5 -0.01209 0-0.01927-1.3e-5 -0.0027 1.4e-5 -0.0046 0-0.0074-2e-3 -0.42186 0.0014-0.80608 0.0086-1.141 1.02e-4 -0.0047 0.27917-0.0034 0.27927-8e-3 0.0074-0.33646-0.26038-0.63248-0.24935-0.86906 1.01e-4 -2e-3 0.12224-0.0112 0.12234-0.01332 0.02229-0.47557-0.31651-0.61373-0.31651-0.61373-0.10807 0.11028-0.21563 0.21111-0.32249 0.30321-0.10686 0.09209-0.21293 0.17525-0.31784 0.25068-0.10492 0.07543-0.2083 0.14321-0.31052 0.20347-0.10223 0.06026-0.20308 0.113-0.30188 0.15958-0.0988 0.04659-0.19595 0.08658-0.29058 0.12102-0.09462 0.03444-0.18689 0.06333-0.27661 0.08711-0.08972 0.02376-0.17657 0.04255-0.26065 0.05718-0.08407 0.01464-0.16501 0.02492-0.2427 0.0319-0.15539 0.01396-0.29749 0.01423-0.4229 0.0067-0.1254-0.0076-0.2343-0.02282-0.32382-0.0399-0.17904-0.03419-0.2806-0.07513-0.2806-0.07513l-3.0035-0.76999c-0.02292 0.02611-0.04485 0.05308-0.06783 0.07912-0.27879 0.31629-0.56253 0.62818-0.85111 0.93556-0.28868 0.30736-0.58217 0.61016-0.88036 0.90829-0.29814 0.29819-0.60094 0.59168-0.90829 0.88036-0.30738 0.28858-0.61927 0.57232-0.93556 0.85111-0.31617 0.27897-0.63671 0.55295-0.96149 0.82185-0.32498 0.26869-0.65416 0.53225-0.98742 0.7906-0.33312 0.2584-0.67028 0.51154-1.0114 0.75935-0.34126 0.24788-0.68641 0.49039-1.0353 0.72743-0.34853 0.23713-0.70076 0.46878-1.0566 0.69485-0.35602 0.22594-0.71557 0.44629-1.0785 0.66094-0.36307 0.21453-0.7295 0.42334-1.0991 0.62637-0.36946 0.2031-0.74209 0.40039-1.1177 0.59179-0.37563 0.19145-0.85198 0.15158-1.2334 0.33113-0.38158 0.17957-0.76595 0.35314-1.153 0.52064-0.38687 0.16746-0.77634 0.32884-1.1683 0.48407-0.39216 0.15513-0.78673 0.3041-1.1836 0.44683-0.39679 0.14279-0.7958 0.27934-1.1969 0.40959-0.40097 0.13044-0.80397 0.25458-1.2088 0.37236-0.40494 0.11764-0.8117 0.22892-1.2201 0.3338-0.40825 0.10484-0.81812 0.20326-1.2295 0.29523-0.41155 0.09204-0.82452 0.1776-1.2388 0.25666-0.41419 0.079-0.8296 0.15148-1.2461 0.21743-0.4164 0.06594-0.8338 0.12536-1.2521 0.1782-0.41838 0.05269-0.83756 0.0988-1.2574 0.1383-0.41969 0.03986-0.83998 0.0731-1.2607 0.09974-0.42101 0.02635-0.8424 0.04608-1.264 0.05918-0.42144 0.01328-0.84305 0.01992-1.2647 0.01995-1.2403 6.5e-5 -2.4799-0.05718-3.715-0.17155-1.2349-0.11456-2.4639-0.28606-3.683-0.51403-1.2193-0.228-2.4275-0.51223-3.6205-0.85177-1.1929-0.33934-2.3696-0.73362-3.5261-1.1816-1.1567-0.44801-2.292-0.94924-3.4024-1.5021-1.1102-0.55295-2.1943-1.1569-3.2488-1.8099-1.0545-0.65299-2.0782-1.3543-3.068-2.1018-0.98981-0.74744-1.9446-1.5402-2.8612-2.3758-0.91663-0.83551-1.7942-1.713-2.6298-2.6297-0.83558-0.91663-1.6284-1.8714-2.3758-2.8612-0.74749-0.98974-1.4489-2.0135-2.1018-3.068-0.653-1.0545-1.2569-2.1386-1.8099-3.2488-0.33915-0.71129-0.5596-1.207-0.85643-1.9369z" fill="url(#linearGradient72468)" stroke-linecap="round" stroke-linejoin="round" stroke-width="6.6146" style="paint-order:stroke fill markers"/>
  <path d="m129.23 68.834c1.2281-2.3233-1.4112-5.9856-2.8153-7.1187 0 0-0.0327-0.07455-0.1203-0.19682-0.0439-0.06113-0.10121-0.13387-0.17554-0.21544-0.0742-0.08158-0.16556-0.17205-0.27596-0.2673-0.11039-0.09526-0.24012-0.1957-0.3923-0.29789-0.15217-0.10219-0.32698-0.20616-0.52661-0.30853-0.19965-0.10237-0.42412-0.20275-0.67691-0.29855-0.12636-0.0479-0.25954-0.09463-0.40028-0.13964-0.14077-0.045-0.28904-0.08842-0.44485-0.12966-0.15579-0.04123-0.31914-0.08038-0.49072-0.11703-0.17156-0.03664-0.35119-0.07119-0.53926-0.1024-0.18804-0.03122-0.38455-0.05886-0.58977-0.08378-0.20525-0.02492-0.41986-0.04672-0.64301-0.06451-0.22314-0.01777-0.45507-0.03207-0.69684-0.04188-0.24175-0.0097-0.49295-0.01494-0.75402-0.01597-0.26107-9.79e-4 -0.53211 0.0027-0.81321 0.01132-0.2811 0.0086-0.57255 0.02205-0.87438 0.04122-0.30184 0.01917-0.61427 0.04396-0.93755 0.07448-0.32329 0.03051-0.65728 0.067-1.0027 0.1097-0.34543 0.04272-0.70223 0.09188-1.0705 0.14762-0.36831 0.05576-0.74781 0.11788-1.1397 0.18751-0.39187 0.06962-0.79598 0.14637-1.2122 0.23073-0.41616 0.08436-0.8448 0.17669-1.286 0.27661-0.44116 0.09993-0.89491 0.20748-1.3618 0.32382-0.46687 0.11633-0.94697 0.24142-1.4402 0.37502 0 0 0.12816 0.10659 0.34909 0.32515 0.11041 0.10928 0.24419 0.24648 0.39697 0.41225 0.15277 0.16578 0.32422 0.36029 0.51066 0.58381 0.18644 0.22352 0.3876 0.47619 0.5991 0.75868 0.2115 0.2825 0.43368 0.59484 0.6616 0.93755 0.22793 0.34271 0.4618 0.71558 0.69752 1.1197 0.11785 0.20208 0.23622 0.41201 0.35441 0.62969 0.11812 0.21768 0.23629 0.44347 0.35373 0.6769 0.11747 0.23343 0.23413 0.47478 0.34976 0.72411 0.11567 0.24933 0.23038 0.50659 0.34309 0.77198 0.11272 0.2654 0.22373 0.53892 0.33247 0.82052 0.10875 0.28161 0.21483 0.57108 0.3185 0.86906 0.10371 0.29798 0.205 0.60443 0.30255 0.91893 0.0975 0.3145 0.1916 0.63696 0.28193 0.96814 0.0904 0.33118 0.17661 0.67066 0.25865 1.0187 0.0821 0.34802 0.16006 0.70486 0.23274 1.0699 0.0727 0.36501 0.13992 0.73826 0.20214 1.1204 0.0621 0.38215 0.11889 0.77282 0.16955 1.1723 0.0506 0.39945 0.0956 0.8079 0.13364 1.2248 0.0381 0.4169 0.07 0.84215 0.0945 1.2767 0.0244 0.43451 0.0416 0.87825 0.0512 1.3305 9e-3 0.45228 0.0116 0.91353 5e-3 1.3837-6e-3 0.47019-0.0207 0.94931-0.0439 1.4376-0.0232 0.48827-0.0546 0.98561-0.0958 1.4921 0 0 0.17087-0.14549 0.47543-0.41225 0.30453-0.26676 0.74276-0.65511 1.278-1.1397 0.53521-0.48458 1.1671-1.0654 1.8591-1.7188 0.34601-0.32672 0.70715-0.67154 1.0785-1.0313 0.37135-0.35977 0.75288-0.73438 1.1403-1.1211 0.38748-0.38669 0.78058-0.78539 1.1749-1.1929 0.39435-0.40749 0.79024-0.8239 1.1822-1.2461 0.39201-0.42218 0.78055-0.85058 1.161-1.2813 0.38043-0.43074 0.75284-0.86408 1.1124-1.2973 0.3596-0.4332 0.70642-0.86576 1.036-1.2953 0.32953-0.42952 0.64131-0.85626 0.93155-1.276 0.11799-0.17052 0.22942-0.33915 0.33977-0.50734 0.36057-0.62891 0.71104-1.2636 1.0513-1.9037z" fill="url(#linearGradient85735)" stroke-linecap="round" stroke-linejoin="round" stroke-width="6.6146" style="paint-order:stroke fill markers"/>
  <g fill="none" stroke-linecap="round" stroke-linejoin="round" stroke-width="6.6146">
   <path d="m73.713 67.693a40.264 40.264 0 0 1-0.26198 0.32648 40.264 40.264 0 0 1-0.82185 0.96149 40.264 40.264 0 0 1-0.85111 0.93556 40.264 40.264 0 0 1-0.88036 0.9083 40.264 40.264 0 0 1-0.90829 0.88036 40.264 40.264 0 0 1-0.93556 0.85111 40.264 40.264 0 0 1-0.96149 0.82186 40.264 40.264 0 0 1-0.98742 0.7906 40.264 40.264 0 0 1-1.0114 0.75935 40.264 40.264 0 0 1-1.0353 0.72743 40.264 40.264 0 0 1-1.0566 0.69485 40.264 40.264 0 0 1-1.0785 0.66094 40.264 40.264 0 0 1-1.0991 0.62636 40.264 40.264 0 0 1-1.1177 0.59179 40.264 40.264 0 0 1-1.1357 0.55654 40.264 40.264 0 0 1-1.153 0.52064 40.264 40.264 0 0 1-1.1683 0.48407 40.264 40.264 0 0 1-1.1836 0.44683 40.264 40.264 0 0 1-1.1969 0.4096 40.264 40.264 0 0 1-1.2088 0.37236 40.264 40.264 0 0 1-1.2201 0.33379 40.264 40.264 0 0 1-1.2295 0.29523 40.264 40.264 0 0 1-1.2388 0.25666 40.264 40.264 0 0 1-1.2461 0.21743 40.264 40.264 0 0 1-1.2521 0.1782 40.264 40.264 0 0 1-1.2574 0.13831 40.264 40.264 0 0 1-1.2607 0.09974 40.264 40.264 0 0 1-1.264 0.05918 40.264 40.264 0 0 1-1.2647 0.01995 40.264 40.264 0 0 1-3.715-0.17155 40.264 40.264 0 0 1-3.683-0.51399 40.264 40.264 0 0 1-3.6205-0.85177 40.264 40.264 0 0 1-3.5261-1.1816 40.264 40.264 0 0 1-3.4024-1.5021 40.264 40.264 0 0 1-3.2488-1.8099 40.264 40.264 0 0 1-3.068-2.1018 40.264 40.264 0 0 1-2.8612-2.3758 40.264 40.264 0 0 1-2.6298-2.6298 40.264 40.264 0 0 1-2.3758-2.8612 40.264 40.264 0 0 1-2.1018-3.068 40.264 40.264 0 0 1-1.8099-3.2488 40.264 40.264 0 0 1-0.95417-2.1623l1.6e-5 -5e-6" style="paint-order:stroke fill markers"/>
   <path d="m71.278 100.04c0.83888-0.3208 1.6663-0.65482 2.4735-0.99474" style="paint-order:stroke fill markers"/>
   <path d="m68.734 100.96c0.85513-0.28798 1.7058-0.59548 2.5447-0.91626" style="paint-order:stroke fill markers"/>
   <path d="m66.163 101.76c0.85599-0.24147 1.7155-0.50994 2.5706-0.79792" style="paint-order:stroke fill markers"/>
   <path d="m63.613 102.39c0.84146-0.18126 1.694-0.39554 2.55-0.637" style="paint-order:stroke fill markers"/>
   <path d="m62.36 102.64c0.41421-0.0729 0.832-0.1554 1.2527-0.24603" style="paint-order:stroke fill markers"/>
   <path d="m61.13 102.83c0.40576-0.0537 0.81657-0.11786 1.2308-0.19082" style="paint-order:stroke fill markers"/>
   <path d="m59.927 102.96c0.3954-0.0328 0.79642-0.0759 1.2022-0.12967" style="paint-order:stroke fill markers"/>
   <path d="m58.759 103.02c0.38311-0.0102 0.77288-0.0319 1.1683-0.0645" style="paint-order:stroke fill markers"/>
   <path d="m57.631 103.02c0.36889 0.0146 0.74528 0.0166 1.1284 6e-3" style="paint-order:stroke fill markers"/>
   <path d="m56.852 102.96c0.25712 0.0239 0.5133 0.0493 0.77864 0.0598" style="paint-order:stroke fill markers"/>
   <path d="m56.837 102.96c0.0049 3.6e-4 0.0097 8.9e-4 0.01464 8.9e-4 2.17e-4 3e-5 3.39e-4 4e-5 6.81e-4 7e-5" style="paint-order:stroke fill markers"/>
   <path d="m54.504 102.51a67.888 67.888 0 0 0 2.3332 0.44617" style="paint-order:stroke fill markers"/>
   <path d="m49.34 101.02c1.0795 0.29766 2.065 0.57425 2.9383 0.82582 0.85872 0.24736 1.6023 0.46944 2.2255 0.6636" style="paint-order:stroke fill markers"/>
   <path d="m5.4291 58.14a67.888 67.888 0 0 0 42.899 42.606c0.32704 0.0893 0.6995 0.18862 1.0114 0.27462" style="paint-order:stroke fill markers"/>
   <path d="m5.4298 58.14h-6.8e-4" style="paint-order:stroke fill markers"/>
  </g>
  <g>
   <path d="m75.7 69.672c-8.8312-5.9808-16.5-14.596-17.51-20.225 1.3036-0.9754 2.5139-2.0697 3.6152-3.2688 1.1014-1.1992 2.089-2.4981 2.9503-3.8799 0.86135-1.3817 1.5926-2.8404 2.1843-4.3573 0.59174-1.517 1.0414-3.0856 1.3432-4.6858 0.30164-1.6 0.45412-3.2245 0.45548-4.8527 2.4e-5 -0.55119-0.01727-1.1022-0.05187-1.6523-0.03461-0.55006-0.0865-1.0989-0.1556-1.6457-0.06911-0.54671-0.15536-1.0911-0.25866-1.6324-0.10321-0.54135-0.2234-1.0793-0.36039-1.6131-0.13716-0.53376-0.29106-1.0631-0.46146-1.5872-0.17029-0.52416-0.35701-1.0428-0.55987-1.5553-0.20281-0.51254-0.42168-1.0186-0.65628-1.5174-0.23474-0.49868-0.4851-0.98986-0.7507-1.4728-0.26542-0.48278-0.54594-0.95711-0.84113-1.4223-0.29524-0.46531-0.60503-0.92123-0.92891-1.3671-0.32401-0.44604-0.66196-0.88178-1.0134-1.3066-0.35131-0.42449-0.71587-0.83784-1.0931-1.2394-0.37731-0.40179-0.76715-0.79164-1.1689-1.1689-0.40159-0.37727-0.81494-0.74183-1.2394-1.0931-0.4248-0.35139-0.86055-0.68934-1.3066-1.0134-0.44586-0.32387-0.90178-0.63366-1.3671-0.92891-0.46517-0.2952-0.9395-0.57571-1.4223-0.84113-0.48296-0.2656-0.97414-0.51596-1.4728-0.7507-0.49879-0.2346-1.0048-0.45347-1.5174-0.65628-0.51243-0.20287-1.0311-0.38958-1.5553-0.55987-0.5241-0.1704-1.0534-0.3243-1.5872-0.46146-0.5338-0.137-1.0718-0.25719-1.6131-0.36039-0.54129-0.1033-1.0857-0.18955-1.6324-0.25866-0.5468-0.069089-1.0956-0.12098-1.6457-0.15559-0.5501-0.03459-1.1012-0.051891-1.6523-0.05187-22.237 1.907e-4 -40.264 18.027-40.263 40.264 1.904e-4 22.237 18.027 40.263 40.263 40.263 12.19-0.002492 25.633-3.4485 33.274-12.946z" fill="url(#linearGradient74510)" stroke-linecap="round" stroke-linejoin="round" stroke-width="6.6146" style="paint-order:stroke fill markers"/>
   <path d="m61.826 49.159a26.312 28.679 0 0 0 1.1716-1.4843 26.312 28.679 0 0 0 1.1683-1.7256 26.312 28.679 0 0 0 1.0473-1.8162 26.312 28.679 0 0 0 0.91893-1.896 26.312 28.679 0 0 0 0.78728-1.9655 26.312 28.679 0 0 0 0.64964-2.025 26.312 28.679 0 0 0 0.50933-2.0713 26.312 28.679 0 0 0 0.36571-2.1076 26.312 28.679 0 0 0 0.22009-2.1308 26.312 28.679 0 0 0 0.07385-2.1431 26.312 28.679 0 0 0-9e-3 -0.73852 26.312 28.679 0 0 0-0.026-0.7378 26.312 28.679 0 0 0-0.04387-0.73707 26.312 28.679 0 0 0-0.06112-0.73563 26.312 28.679 0 0 0-0.07785-0.73346 26.312 28.679 0 0 0-0.09573-0.73126 26.312 28.679 0 0 0-0.1131-0.72838 26.312 28.679 0 0 0-0.13033-0.72476 26.312 28.679 0 0 0-0.14694-0.7204 26.312 28.679 0 0 0-0.16424-0.71679 26.312 28.679 0 0 0-0.18086-0.71171 26.312 28.679 0 0 0-0.19748-0.70591 26.312 28.679 0 0 0-0.21478-0.70084 26.312 28.679 0 0 0-0.23073-0.69431 26.312 28.679 0 0 0-0.24668-0.68779 26.312 28.679 0 0 0-0.26331-0.68054 26.312 28.679 0 0 0-0.27927-0.67258 26.312 28.679 0 0 0-0.29524-0.66459 26.312 28.679 0 0 0-0.31052-0.65664 26.312 28.679 0 0 0-0.32648-0.6472 26.312 28.679 0 0 0-0.34111-0.63778 26.312 28.679 0 0 0-0.3564-0.62837 26.312 28.679 0 0 0-0.37103-0.61748 26.312 28.679 0 0 0-0.38499-0.60734 26.312 28.679 0 0 0-0.16091-0.2399c-0.02949 0.0013-26.752 1.5545-23.888 23.407 2.8657 21.865 21.982 12.825 21.982 12.825z" fill="url(#linearGradient78504)"/>
   <path d="m63.71 12.937s15.263 20.014 5.4581 34.496c0 0-2.4376-5.3419-1.3711-6.4765 0 0-2.5838 3.1771-1.4335 17.959 0 0-16.132-21.338-2.6534-45.978z" fill="url(#linearGradient79088)"/>
   <path d="m99.134 59.291c-0.41617 0.0025-0.8269 0.0147-1.2321 0.03657s-0.80482 0.05295-1.1989 0.0931c-0.39404 0.04015-0.78227 0.08922-1.165 0.14629-0.38268 0.05705-0.75993 0.12221-1.131 0.19482-0.37113 0.07261-0.73646 0.15257-1.0958 0.23938-0.35935 0.08682-0.7125 0.18095-1.0599 0.2806-0.34739 0.09964-0.68877 0.20538-1.024 0.3165-0.33522 0.11113-0.66456 0.22718-0.98742 0.34842-0.32286 0.12125-0.63923 0.24768-0.94952 0.37768-0.31029 0.13-0.6141 0.26355-0.91162 0.40095-0.29752 0.1374-0.58917 0.27812-0.87372 0.42156-0.28455 0.14345-0.56244 0.29006-0.83382 0.43819-0.27138 0.14813-0.53592 0.29804-0.79392 0.44949-0.25801 0.15145-0.50959 0.30406-0.75403 0.45747-0.24444 0.15342-0.48214 0.30744-0.7128 0.46146-0.23066 0.15402-0.45422 0.30819-0.67091 0.46146-0.43339 0.30654-0.83853 0.61027-1.2148 0.90563-0.37629 0.29536-0.72369 0.58244-1.0413 0.85576-0.31759 0.27332-0.60513 0.53291-0.86241 0.77331-0.25728 0.2404-0.48419 0.46167-0.67956 0.65828-0.19537 0.19661-0.35953 0.36872-0.49138 0.51067-0.26371 0.28389-0.39896 0.4475-0.39896 0.4475s-0.02292 0.26371-0.04521 0.74406c-0.0112 0.24017-0.02247 0.5343-0.02992 0.87704-0.0074 0.33494-0.01067 0.71915-0.0086 1.141 1.4e-5 0.0027-1.4e-5 0.0046 0 0.0074 0.0025 0.42818 0.01093 0.89734 0.02925 1.4037 0.01841 0.50896 0.04649 1.0545 0.0871 1.6311 0.0406 0.57655 0.09395 1.1845 0.1629 1.8173 0.06897 0.63274 0.15316 1.2907 0.25666 1.9682 0.05175 0.33877 0.10868 0.68215 0.17022 1.03 0.06154 0.34782 0.12804 0.69978 0.20014 1.0552 0.07211 0.35546 0.14996 0.71485 0.23339 1.0765 0.08344 0.36167 0.17242 0.72603 0.26797 1.0925 0.09554 0.36646 0.19745 0.73464 0.30587 1.1044 0.10842 0.36981 0.22303 0.74068 0.3451 1.1124 0.12206 0.37174 0.25117 0.74416 0.38765 1.1164 0.13648 0.37225 0.28053 0.74441 0.4322 1.1157 0.15167 0.37134 0.31112 0.7421 0.47875 1.1111 0.16764 0.36899 0.34359 0.73656 0.52795 1.1018 0.18437 0.36523 0.37728 0.72845 0.57915 1.0885 0.20187 0.36003 0.41287 0.71711 0.63301 1.0705 0.22014 0.35342 0.44967 0.70254 0.68886 1.0479 0.20701 0.29892 0.4245 0.59314 0.64631 0.88502 0.03449 0.0453 0.06556 0.0924 0.10041 0.13764 0.25901 0.33592 0.52829 0.66639 0.80789 0.99141 0.2796 0.32502 0.56943 0.64481 0.87039 0.9575 0.15048 0.15342 0.30338 0.29887 0.45814 0.43753 0.15476 0.13865 0.31195 0.27002 0.47077 0.39431 0.15882 0.12428 0.31939 0.24142 0.48207 0.35174 0.16268 0.11031 0.32706 0.21379 0.49338 0.31052 0.16632 0.0967 0.33426 0.18709 0.50402 0.27062 0.16976 0.0836 0.34167 0.16066 0.51466 0.2314 0.17298 0.0707 0.3473 0.13516 0.5233 0.19349 0.17599 0.0584 0.35314 0.1106 0.53194 0.15693 0.1788 0.0464 0.3592 0.0863 0.54059 0.12101 0.18139 0.0346 0.36413 0.0643 0.5479 0.0878 0.18378 0.0235 0.3686 0.0412 0.55455 0.0538s0.37263 0.0198 0.56054 0.022c0.18791 2e-3 0.37687-6.7e-4 0.56653-8e-3 0.18966-8e-3 0.38064-0.0204 0.57184-0.0379s0.38263-0.0397 0.57516-0.0665 0.38617-0.0581 0.57981-0.0937c0.19366-0.0356 0.38725-0.0756 0.58182-0.11968 0.19456-0.0441 0.38987-0.0927 0.58514-0.14496 0.39051-0.10443 0.78221-0.22462 1.1743-0.35906 0.39205-0.13442 0.78435-0.28289 1.1763-0.44417 0.39191-0.16129 0.78352-0.33497 1.1736-0.51997 0.39008-0.18501 0.77839-0.38155 1.165-0.58714 0.38656-0.20558 0.77095-0.42063 1.1523-0.64365 0.38137-0.22302 0.75988-0.45355 1.1344-0.69086 0.37448-0.23732 0.74516-0.48095 1.1111-0.72943 0.36594-0.24847 0.7275-0.50219 1.0832-0.75868 0.35568-0.2565 0.70551-0.51594 1.0492-0.7773 0.34375-0.26138 0.68123-0.52417 1.0114-0.78728s0.65263-0.52689 0.96747-0.7886c0.62968-0.52343 1.2276-1.0403 1.786-1.5393 0.52064-0.46524 0.99886-0.90961 1.4462-1.3325 0.0324-0.03067 0.0732-0.06603 0.105-0.09642 0.47365-0.44942 0.90124-0.86801 1.2767-1.2428 0.37543-0.37474 0.6984-0.70582 0.96216-0.98077 0.52749-0.5499 0.81859-0.87507 0.81859-0.87507 0.31872-0.55911 0.0958-1.4921 0.0958-1.4921 0.0231-0.48826 0.0377-0.96738 0.0439-1.4376 6e-3 -0.47019 4e-3 -0.93144-5e-3 -1.3837-9e-3 -0.45227-0.0268-0.89601-0.0512-1.3305-0.0244-0.43451-0.0564-0.85976-0.0945-1.2767-0.038-0.4169-0.0829-0.82535-0.13365-1.2248-0.0506-0.39945-0.10731-0.79012-0.16955-1.1723-0.0622-0.38215-0.12947-0.7554-0.20215-1.1204-0.0727-0.36501-0.15067-0.72185-0.23271-1.0699-0.0821-0.34801-0.16833-0.68749-0.25865-1.0187-0.0904-0.33118-0.18439-0.65363-0.28194-0.96814-0.0975-0.3145-0.19886-0.62095-0.30255-0.91893-0.1037-0.29798-0.20976-0.58745-0.31849-0.86906s-0.21976-0.55513-0.33247-0.82052c-0.11272-0.26539-0.22747-0.52265-0.3431-0.77198-0.11568-0.24933-0.2323-0.49068-0.34976-0.72411-0.11748-0.23343-0.23555-0.45922-0.35374-0.6769-0.11825-0.21768-0.23654-0.42761-0.35442-0.62969-0.23571-0.40416-0.46958-0.77703-0.6975-1.1197-0.22791-0.34271-0.45011-0.65505-0.6616-0.93755-0.2115-0.28249-0.41265-0.53516-0.59911-0.75868-0.18644-0.22352-0.35788-0.41803-0.51065-0.58381-0.15278-0.16578-0.28649-0.30298-0.39696-0.41225-0.22096-0.21856-0.3491-0.32515-0.3491-0.32515-0.29262-0.1241-0.583-0.24283-0.87173-0.35574-0.28872-0.11291-0.5756-0.22049-0.86041-0.32249-0.22123-0.07922-0.44009-0.1526-0.65895-0.22541-0.14057-0.04466-0.25548-0.08647-0.40693-0.13166-3e-3 -6.81e-4 -5e-3 -0.0016-8e-3 -0.0027-8.9e-4 -3.4e-4 -3e-3 -6.81e-4 -5e-3 -0.0014-0.21915-0.06526-0.44941-0.13079-0.69018-0.19549-0.24241-0.06513-0.49495-0.12954-0.75803-0.19216-0.26307-0.06263-0.53669-0.12336-0.81918-0.18152-0.2825-0.05815-0.5744-0.11381-0.87506-0.16557-0.50638-0.07914-1.5415-0.09881-2.2022-0.12434-0.42692-0.01876-0.84851-0.02682-1.2647-0.02461z" fill="url(#linearGradient85990)" stroke-linecap="round" stroke-linejoin="round" stroke-width="6.6146" style="paint-order:stroke fill markers"/>
   <path d="m124.43 62.405c-0.16169-0.68105 1.9837-0.68884 1.9837-0.68884s1.971-0.15273 2.9087 1.4541c0.93776 1.6068 1.22 2.1651 1.1364 3.3373-0.0618 0.86511-1.1799 2.319-1.1799 2.319s-1.8587 0.86215-2.0015 0.33071c-0.30818-1.1472-0.017-2.2229-0.73083-3.488-0.78799-1.3965-1.7943-1.9066-2.1166-3.2643z" fill="#17100b"/>
  </g>
 </g>
</svg>
