<?xml version="1.0" encoding="UTF-8" standalone="no"?>
<!-- Created with Inkscape (http://www.inkscape.org/) -->

<svg
   width="512"
   height="512"
   viewBox="0 0 135.46667 135.46667"
   version="1.1"
   id="svg5"
   sodipodi:docname="m152-logo-one-layer.svg"
   inkscape:version="1.1 (c68e22c387, 2021-05-23)"
   xmlns:inkscape="http://www.inkscape.org/namespaces/inkscape"
   xmlns:sodipodi="http://sodipodi.sourceforge.net/DTD/sodipodi-0.dtd"
   xmlns:xlink="http://www.w3.org/1999/xlink"
   xmlns="http://www.w3.org/2000/svg"
   xmlns:svg="http://www.w3.org/2000/svg">
  <sodipodi:namedview
     id="namedview7"
     pagecolor="#505050"
     bordercolor="#eeeeee"
     borderopacity="1"
     inkscape:pageshadow="0"
     inkscape:pageopacity="0"
     inkscape:pagecheckerboard="0"
     inkscape:document-units="px"
     showgrid="false"
     inkscape:showpageshadow="true"
     inkscape:snap-intersection-paths="true"
     inkscape:object-paths="true"
     inkscape:snap-smooth-nodes="true"
     inkscape:zoom="1"
     inkscape:cx="-10"
     inkscape:cy="293.5"
     inkscape:window-width="1920"
     inkscape:window-height="1001"
     inkscape:window-x="-9"
     inkscape:window-y="-9"
     inkscape:window-maximized="1"
     inkscape:current-layer="layer2"
     inkscape:object-nodes="true"
     units="px" />
  <defs
     id="defs2">
    <linearGradient
       inkscape:collect="always"
       id="linearGradient88821">
      <stop
         style="stop-color:#502d16;stop-opacity:1;"
         offset="0"
         id="stop88817" />
      <stop
         style="stop-color:#28170b;stop-opacity:1"
         offset="1"
         id="stop88819" />
    </linearGradient>
    <linearGradient
       inkscape:collect="always"
       id="linearGradient74508">
      <stop
         style="stop-color:#e8e2ce;stop-opacity:1;"
         offset="0"
         id="stop74504" />
      <stop
         style="stop-color:#957d66;stop-opacity:1"
         offset="1"
         id="stop74506" />
    </linearGradient>
    <linearGradient
       inkscape:collect="always"
       id="linearGradient72466">
      <stop
         style="stop-color:#957d66;stop-opacity:1;"
         offset="0"
         id="stop72462" />
      <stop
         style="stop-color:#e8e2ce;stop-opacity:1"
         offset="1"
         id="stop72464" />
    </linearGradient>
    <linearGradient
       inkscape:collect="always"
       xlink:href="#linearGradient72466"
       id="linearGradient72468"
       x1="301.3772"
       y1="632.54028"
       x2="438.72849"
       y2="632.54028"
       gradientUnits="userSpaceOnUse"
       gradientTransform="matrix(0.34044356,0,0,0.34044356,-63.953539,-134.75961)" />
    <linearGradient
       inkscape:collect="always"
       xlink:href="#linearGradient74508"
       id="linearGradient74510"
       x1="194.20703"
       y1="520.24512"
       x2="352.68893"
       y2="612.74762"
       gradientUnits="userSpaceOnUse"
       gradientTransform="matrix(0.34044356,0,0,0.34044356,-63.953539,-134.75961)" />
    <linearGradient
       inkscape:collect="always"
       xlink:href="#linearGradient74508"
       id="linearGradient78504"
       x1="306.02393"
       y1="475.00681"
       x2="369.39648"
       y2="531.47656"
       gradientUnits="userSpaceOnUse"
       gradientTransform="matrix(0.34044356,0,0,0.37107355,-63.953539,-148.048)" />
    <linearGradient
       inkscape:collect="always"
       xlink:href="#linearGradient72466"
       id="linearGradient79088"
       x1="100.70986"
       y1="119.12302"
       x2="100.20357"
       y2="147.55559"
       gradientUnits="userSpaceOnUse"
       gradientTransform="matrix(1.2866886,-0.00837133,0.00837133,1.2866886,-65.057574,-133.91314)" />
    <linearGradient
       inkscape:collect="always"
       xlink:href="#linearGradient72466"
       id="linearGradient85735"
       x1="521.73987"
       y1="624.43756"
       x2="567.45715"
       y2="606.87378"
       gradientUnits="userSpaceOnUse"
       gradientTransform="matrix(0.34044356,0,0,0.34044356,-63.953539,-134.75961)" />
    <linearGradient
       inkscape:collect="always"
       xlink:href="#linearGradient72466"
       id="linearGradient85990"
       x1="351.58441"
       y1="697.66748"
       x2="571.06458"
       y2="586.99609"
       gradientUnits="userSpaceOnUse"
       gradientTransform="matrix(0.34044356,0,0,0.34044356,-63.953539,-134.75961)" />
    <linearGradient
       inkscape:collect="always"
       xlink:href="#linearGradient88821"
       id="linearGradient90436"
       gradientUnits="userSpaceOnUse"
       x1="127.66914"
       y1="177.17142"
       x2="127.66914"
       y2="189.72975"
       gradientTransform="matrix(1.2867158,0,0,1.2867158,-63.953537,-134.75961)" />
    <linearGradient
       inkscape:collect="always"
       xlink:href="#linearGradient88821"
       id="linearGradient90472"
       gradientUnits="userSpaceOnUse"
       x1="119.20321"
       y1="152.39102"
       x2="119.12814"
       y2="144.50746"
       gradientTransform="matrix(1.2867158,0,0,1.2867158,-64.090711,-134.75937)" />
  </defs>
  <g
     inkscape:groupmode="layer"
     id="layer2"
     inkscape:label="Layer 2"
     style="display:inline;opacity:1">
    <path
       style="display:inline;fill:url(#linearGradient90472);fill-opacity:1;stroke:none;stroke-width:0.264583px;stroke-linecap:butt;stroke-linejoin:miter;stroke-opacity:1"
       d="m 79.050697,68.566353 c 0,0 8.613701,-9.199619 22.507113,-9.160863 0,0 3.42948,-3.570418 -6.952913,-7.422704 -10.382401,-3.852285 -16.865518,6.811976 -16.865518,6.811976 0,0 -1.789307,4.415971 1.311318,9.771591 z"
       id="path1354-2"
       sodipodi:nodetypes="ccscc" />
    <path
       style="display:inline;fill:url(#linearGradient90436);fill-opacity:1;stroke:none;stroke-width:0.264583px;stroke-linecap:butt;stroke-linejoin:miter;stroke-opacity:1"
       d="m 87.178405,95.250343 c 0,0 3.624562,7.130117 3.793877,9.994307 0.193105,3.26636 7.558195,4.04262 11.803208,3.86455 4.21935,-0.177 8.1274,-1.87917 8.55022,-9.348847 0.42282,-7.469698 0.62086,-10.29857 0.62086,-10.29857 l 0.55361,-3.654248 z"
       id="path1352-7"
       sodipodi:nodetypes="csssccc" />
    <path
       id="path2194"
       style="fill:#000000;fill-opacity:0.501027;stroke-width:6.61458;stroke-linecap:round;stroke-linejoin:round;paint-order:stroke fill markers"
       d="m 105.7556,60.178906 c 0.15144,0.04519 0.26634,0.087 0.40692,0.131657 -0.063,-0.02093 -0.12675,-0.0441 -0.18949,-0.06451 -0.073,-0.02376 -0.14472,-0.04411 -0.21743,-0.06715 z" />
    <path
       id="path2158"
       style="fill:#000000;fill-opacity:0.501027;stroke-width:6.61458;stroke-linecap:round;stroke-linejoin:round;paint-order:stroke fill markers"
       d="m 66.163062,101.75557 c -0.855995,0.24147 -1.708547,0.45574 -2.550004,0.63701 0.42073,-0.0906 0.844024,-0.18936 1.269351,-0.2959 0.425322,-0.10654 0.852655,-0.22038 1.280653,-0.34111 z" />
    <path
       id="path2218"
       style="fill:#000000;fill-opacity:0.501027;stroke-width:6.61458;stroke-linecap:round;stroke-linejoin:round;paint-order:stroke fill markers"
       d="m 68.733676,100.95766 c -0.855136,0.28797 -1.714623,0.55645 -2.570614,0.79791 0.427995,-0.12074 0.857226,-0.24845 1.285971,-0.38167 0.428744,-0.13321 0.857072,-0.27226 1.284643,-0.41624 z" />
    <path
       id="path2216"
       style="fill:#000000;fill-opacity:0.501027;stroke-width:6.61458;stroke-linecap:round;stroke-linejoin:round;paint-order:stroke fill markers"
       d="m 71.27836,100.04138 c -0.838889,0.3208 -1.68955,0.6283 -2.544684,0.91628 0.427566,-0.14399 0.85419,-0.29312 1.278659,-0.44617 0.424464,-0.15304 0.84658,-0.3097 1.266025,-0.47011 z" />
    <path
       id="path2214"
       style="fill:#000000;fill-opacity:0.501027;stroke-width:6.61458;stroke-linecap:round;stroke-linejoin:round;paint-order:stroke fill markers"
       d="m 73.751892,99.046653 c -0.807242,0.33992 -1.63465,0.67395 -2.473532,0.994727 0.419439,-0.160387 0.836244,-0.324007 1.248733,-0.490037 0.412494,-0.16603 0.821176,-0.33473 1.224799,-0.50469 z" />
    <path
       id="path2816"
       style="fill:url(#linearGradient72468);fill-opacity:1;stroke-width:6.61458;stroke-linecap:round;stroke-linejoin:round;paint-order:stroke fill markers"
       d="M 5.4291235,58.139571 C 12.26619,78.27691 28.144581,94.046761 48.328341,100.74555 c 0.327033,0.0893 0.699494,0.18862 1.011355,0.27462 5.532749,1.63346 12.362347,1.94316 16.823366,0.7354 0.855991,-0.24146 1.715478,-0.50994 2.570614,-0.79791 0.855134,-0.28798 1.705795,-0.59548 2.544684,-0.91628 0.838882,-0.320777 1.66629,-0.654807 2.473532,-0.994727 0.807244,-0.33991 1.594305,-0.68595 2.354516,-1.0313 0.76021,-0.34535 1.493153,-0.69022 2.190937,-1.02732 1.39557,-0.67418 2.650803,-1.3181 3.704319,-1.87709 1.053516,-0.558997 1.90516,-1.032827 2.493484,-1.367087 0.588327,-0.334277 0.913614,-0.528637 0.913614,-0.528637 0,0 0.488057,-0.305156 0.488057,-0.305192 -0.224768,-0.291583 -0.694714,-0.404881 -0.904305,-0.704163 -0.239191,-0.341549 -0.468721,-0.687743 -0.688865,-1.037952 -0.220149,-0.350208 -0.431139,-0.704484 -0.633011,-1.061889 -0.20187,-0.357409 -0.394789,-0.71803 -0.579153,-1.081171 -0.184367,-0.36314 -0.360322,-0.729057 -0.527956,-1.096469 -0.167635,-0.367421 -0.327079,-0.736205 -0.478748,-1.106442 -0.151674,-0.370236 -0.295724,-0.741496 -0.432205,-1.113091 -0.136483,-0.371592 -0.26559,-0.743592 -0.387653,-1.115084 -0.122071,-0.371493 -0.23668,-0.742498 -0.345096,-1.112427 -0.108419,-0.369933 -0.210329,-0.738867 -0.305868,-1.105777 -0.09554,-0.36691 -0.18453,-0.732043 -0.267967,-1.094472 -0.08344,-0.36243 -0.161288,-0.722027 -0.233387,-1.078516 -0.07211,-0.356488 -0.138606,-0.710142 -0.200148,-1.059232 -0.06154,-0.349091 -0.118467,-0.693731 -0.170222,-1.033964 -0.103502,-0.680462 -0.187692,-1.341892 -0.25666,-1.978165 -0.06897,-0.636268 -0.122314,-1.247483 -0.162909,-1.827889 -0.0406,-0.580401 -0.0687,-1.130176 -0.0871,-1.643038 -0.01841,-0.512858 -0.02687,-0.988642 -0.02925,-1.422282 -4.1e-5,-0.0072 3.7e-5,-0.01209 0,-0.01927 -1.3e-5,-0.0027 1.4e-5,-0.0046 0,-0.0074 -0.002,-0.421864 0.0014,-0.806082 0.0086,-1.141017 1.02e-4,-0.0047 0.279168,-0.0034 0.279269,-0.008 0.0074,-0.336457 -0.260379,-0.63248 -0.249347,-0.869062 1.01e-4,-0.002 0.122237,-0.0112 0.122341,-0.01332 0.02229,-0.475574 -0.316507,-0.613732 -0.316507,-0.613732 -0.108071,0.110284 -0.215626,0.211109 -0.322489,0.303209 -0.106861,0.09209 -0.21293,0.175254 -0.317835,0.250676 -0.104919,0.07543 -0.2083,0.143214 -0.310522,0.203469 -0.102233,0.06026 -0.203085,0.112999 -0.301877,0.159583 -0.0988,0.04659 -0.195946,0.08658 -0.290575,0.121015 -0.09462,0.03444 -0.186887,0.06333 -0.276611,0.08711 -0.08972,0.02376 -0.176574,0.04255 -0.260651,0.05718 -0.08407,0.01464 -0.16501,0.02492 -0.242698,0.0319 -0.155387,0.01396 -0.29749,0.01423 -0.422896,0.0067 -0.125403,-0.0076 -0.234303,-0.02282 -0.32382,-0.0399 -0.179039,-0.03419 -0.2806,-0.07513 -0.2806,-0.07513 l -3.003485,-0.769988 c -0.02292,0.02611 -0.04485,0.05308 -0.06783,0.07912 -0.278786,0.31629 -0.562526,0.628181 -0.851109,0.935557 -0.288678,0.307356 -0.582173,0.610157 -0.880363,0.908294 -0.298137,0.29819 -0.600938,0.591683 -0.908293,0.880363 -0.307378,0.288583 -0.619267,0.572322 -0.935557,0.851109 -0.316173,0.278968 -0.636706,0.552953 -0.961487,0.821854 -0.324981,0.268688 -0.654159,0.532253 -0.98742,0.790598 -0.33312,0.258397 -0.670282,0.511543 -1.011356,0.75935 -0.341265,0.247882 -0.686409,0.490391 -1.035295,0.727431 -0.348532,0.237133 -0.700765,0.468782 -1.05657,0.694853 -0.356023,0.225945 -0.715571,0.446287 -1.078515,0.660936 -0.363073,0.214532 -0.729496,0.423345 -1.09913,0.626367 -0.369458,0.203101 -0.742086,0.400388 -1.117744,0.591786 -0.375628,0.191447 -0.851985,0.151575 -1.233443,0.331132 -0.381579,0.179574 -0.765954,0.353142 -1.152988,0.52064 -0.386868,0.167461 -0.776344,0.328842 -1.168279,0.48407 -0.392161,0.15513 -0.786731,0.304095 -1.183572,0.446833 -0.396786,0.142787 -0.795797,0.279337 -1.19687,0.409594 -0.400971,0.13044 -0.803972,0.254577 -1.208845,0.37236 -0.40494,0.117644 -0.811705,0.228925 -1.220142,0.333795 -0.408247,0.104841 -0.818118,0.203262 -1.229455,0.295229 -0.411551,0.09204 -0.824524,0.177599 -1.238761,0.256661 -0.414193,0.079 -0.829605,0.151484 -1.246076,0.21743 -0.416395,0.06594 -0.833802,0.125365 -1.252061,0.178202 -0.418378,0.05269 -0.837556,0.0988 -1.257381,0.138304 -0.419687,0.03986 -0.839976,0.0731 -1.260705,0.09974 -0.421008,0.02635 -0.842405,0.04608 -1.26403,0.05918 -0.421436,0.01328 -0.843052,0.01992 -1.264695,0.01995 -1.240299,6.5e-5 -2.479939,-0.05718 -3.714957,-0.171549 -1.234929,-0.114555 -2.46392,-0.286065 -3.683028,-0.51403 -1.219323,-0.228003 -2.427456,-0.512227 -3.620536,-0.851772 -1.192945,-0.33934 -2.369573,-0.733623 -3.526121,-1.181581 -1.156676,-0.448014 -2.292036,-0.949243 -3.40244,-1.502075 -1.110248,-0.552946 -2.194349,-1.156906 -3.248842,-1.809934 -1.054487,-0.652988 -2.078238,-1.354349 -3.067979,-2.10184 -0.989813,-0.747441 -1.944563,-1.540215 -2.86119,-2.37579 -0.91663,-0.83551 -1.794163,-1.713049 -2.629785,-2.629683 C 11.738184,68.337885 10.945407,67.383134 10.19797,66.393323 9.4504775,65.403581 8.7491165,64.379825 8.0961315,63.32534 c -0.652995,-1.054497 -1.256948,-2.138598 -1.8099,-3.248846 -0.33915,-0.711288 -0.559601,-1.206971 -0.85643,-1.936937 z" />
    <path
       id="path2150"
       style="fill:url(#linearGradient85735);fill-opacity:1;stroke-width:6.61458;stroke-linecap:round;stroke-linejoin:round;paint-order:stroke fill markers"
       d="m 129.23357,68.834284 c 1.22811,-2.32326 -1.41118,-5.985562 -2.81527,-7.118728 0,0 -0.0327,-0.07455 -0.1203,-0.196816 -0.0439,-0.06113 -0.10121,-0.133866 -0.17554,-0.215437 -0.0742,-0.08158 -0.16556,-0.172046 -0.27596,-0.267302 -0.11039,-0.09526 -0.24012,-0.195698 -0.3923,-0.297889 -0.15217,-0.102192 -0.32698,-0.206156 -0.52661,-0.308528 -0.19965,-0.102366 -0.42412,-0.20275 -0.67691,-0.298551 -0.12636,-0.0479 -0.25954,-0.09463 -0.40028,-0.139637 -0.14077,-0.045 -0.28904,-0.08842 -0.44485,-0.129661 -0.15579,-0.04123 -0.31914,-0.08038 -0.49072,-0.117027 -0.17156,-0.03664 -0.35119,-0.07119 -0.53926,-0.102397 -0.18804,-0.03122 -0.38455,-0.05886 -0.58977,-0.08378 -0.20525,-0.02492 -0.41986,-0.04672 -0.64301,-0.06451 -0.22314,-0.01777 -0.45507,-0.03207 -0.69684,-0.04188 -0.24175,-0.0097 -0.49295,-0.01494 -0.75402,-0.01597 -0.26107,-9.79e-4 -0.53211,0.0027 -0.81321,0.01132 -0.2811,0.0086 -0.57255,0.02205 -0.87438,0.04122 -0.30184,0.01917 -0.61427,0.04396 -0.93755,0.07448 -0.32329,0.03051 -0.65728,0.067 -1.00272,0.109704 -0.34543,0.04272 -0.70223,0.09188 -1.07052,0.147618 -0.36831,0.05576 -0.74781,0.117876 -1.13971,0.18751 -0.39187,0.06962 -0.79598,0.146373 -1.21216,0.230727 -0.41616,0.08436 -0.8448,0.176688 -1.28597,0.276611 -0.44116,0.09993 -0.89491,0.207484 -1.36176,0.323823 -0.46687,0.116332 -0.94697,0.241423 -1.44025,0.37502 0,0 0.12816,0.106591 0.34909,0.32515 0.11041,0.109282 0.24419,0.246475 0.39697,0.412254 0.15277,0.165782 0.32422,0.360291 0.51066,0.58381 0.18644,0.223518 0.3876,0.476187 0.5991,0.75868 0.2115,0.282498 0.43368,0.594841 0.6616,0.937552 0.22793,0.342708 0.4618,0.71558 0.69752,1.119739 0.11785,0.202081 0.23622,0.412012 0.35441,0.629688 0.11812,0.217676 0.23629,0.443469 0.35373,0.676898 0.11747,0.233428 0.23413,0.474776 0.34976,0.724109 0.11567,0.24933 0.23038,0.506587 0.34309,0.77198 0.11272,0.265397 0.22373,0.538916 0.33247,0.820524 0.10875,0.281608 0.21483,0.571083 0.3185,0.869059 0.10371,0.297981 0.205,0.60443 0.30255,0.918934 0.0975,0.314504 0.1916,0.636955 0.28193,0.968135 0.0904,0.331185 0.17661,0.670657 0.25865,1.018672 0.0821,0.348019 0.16006,0.704865 0.23274,1.069871 0.0727,0.365007 0.13992,0.738255 0.20214,1.120403 0.0621,0.382153 0.11889,0.772822 0.16955,1.172271 0.0506,0.399448 0.0956,0.807896 0.13364,1.2248 0.0381,0.416903 0.07,0.842152 0.0945,1.276663 0.0244,0.434511 0.0416,0.878249 0.0512,1.330521 0.009,0.452276 0.0116,0.913527 0.005,1.38372 -0.006,0.47019 -0.0207,0.949309 -0.0439,1.437574 -0.0232,0.488267 -0.0546,0.985608 -0.0958,1.492099 0,0 0.17087,-0.145492 0.47543,-0.412254 0.30453,-0.266764 0.74276,-0.655108 1.27799,-1.139688 0.53521,-0.484581 1.16711,-1.065388 1.85914,-1.718842 0.34601,-0.326724 0.70715,-0.671539 1.07852,-1.031303 0.37135,-0.359767 0.75288,-0.734385 1.14034,-1.12107 0.38748,-0.38669 0.78058,-0.785393 1.17494,-1.192884 0.39435,-0.40749 0.79024,-0.823899 1.18224,-1.246073 0.39201,-0.422178 0.78055,-0.850575 1.16096,-1.281321 0.38043,-0.430744 0.75284,-0.864084 1.11243,-1.297274 0.3596,-0.433195 0.70642,-0.865762 1.03597,-1.295283 0.32953,-0.429524 0.64131,-0.856263 0.93155,-1.275999 0.11799,-0.170521 0.22942,-0.339147 0.33977,-0.50734 0.36057,-0.628911 0.71104,-1.263555 1.05127,-1.903692 z"
       sodipodi:nodetypes="ccsssssssssssssscsssssssscssssssssssssssssssssssscsssssssssssccc" />
    <path
       id="path2223"
       style="fill:none;fill-opacity:0.501027;stroke-width:6.61458;stroke-linecap:round;stroke-linejoin:round;paint-order:stroke fill markers"
       d="m 73.712643,67.693269 a 40.263779,40.263779 0 0 1 -0.261982,0.326479 40.263779,40.263779 0 0 1 -0.821854,0.961486 40.263779,40.263779 0 0 1 -0.851109,0.935555 40.263779,40.263779 0 0 1 -0.88036,0.908295 40.263779,40.263779 0 0 1 -0.908293,0.880363 40.263779,40.263779 0 0 1 -0.935556,0.851109 40.263779,40.263779 0 0 1 -0.961487,0.821855 40.263779,40.263779 0 0 1 -0.987421,0.790598 40.263779,40.263779 0 0 1 -1.011354,0.759349 40.263779,40.263779 0 0 1 -1.035297,0.727433 40.263779,40.263779 0 0 1 -1.056569,0.694853 40.263779,40.263779 0 0 1 -1.078515,0.660937 40.263779,40.263779 0 0 1 -1.099129,0.626364 40.263779,40.263779 0 0 1 -1.117744,0.591786 40.263779,40.263779 0 0 1 -1.135699,0.556543 40.263779,40.263779 0 0 1 -1.152988,0.520642 40.263779,40.263779 0 0 1 -1.168279,0.484066 40.263779,40.263779 0 0 1 -1.183573,0.446831 40.263779,40.263779 0 0 1 -1.196874,0.4096 40.263779,40.263779 0 0 1 -1.20884,0.372359 40.263779,40.263779 0 0 1 -1.220142,0.333794 40.263779,40.263779 0 0 1 -1.229455,0.29523 40.263779,40.263779 0 0 1 -1.238761,0.25666 40.263779,40.263779 0 0 1 -1.246078,0.217431 40.263779,40.263779 0 0 1 -1.25206,0.178202 40.263779,40.263779 0 0 1 -1.25738,0.138306 40.263779,40.263779 0 0 1 -1.260708,0.09974 40.263779,40.263779 0 0 1 -1.264028,0.05918 40.263779,40.263779 0 0 1 -1.264694,0.01995 40.263779,40.263779 0 0 1 -3.714958,-0.171553 40.263779,40.263779 0 0 1 -3.68304,-0.51399 40.263779,40.263779 0 0 1 -3.620537,-0.851774 40.263779,40.263779 0 0 1 -3.526121,-1.181581 40.263779,40.263779 0 0 1 -3.402439,-1.502075 40.263779,40.263779 0 0 1 -3.248843,-1.809932 40.263779,40.263779 0 0 1 -3.067982,-2.101842 40.263779,40.263779 0 0 1 -2.861187,-2.375792 40.263779,40.263779 0 0 1 -2.629794,-2.62979 40.263779,40.263779 0 0 1 -2.375793,-2.86119 40.263779,40.263779 0 0 1 -2.1018355,-3.067983 40.263779,40.263779 0 0 1 -1.809939,-3.248843 40.263779,40.263779 0 0 1 -0.954174,-2.162348 l 1.6e-5,-5e-6 v 0 0" />
    <path
       id="path2255"
       style="fill:none;fill-opacity:0.501027;stroke-width:6.61458;stroke-linecap:round;stroke-linejoin:round;paint-order:stroke fill markers"
       d="m 71.278349,100.04141 c 0,0 0,0 0,0 0.838883,-0.320797 1.66629,-0.654817 2.473533,-0.994737" />
    <path
       id="path2253"
       style="fill:none;fill-opacity:0.501027;stroke-width:6.61458;stroke-linecap:round;stroke-linejoin:round;paint-order:stroke fill markers"
       d="m 68.73367,100.95767 c 0,0 0,0 0,0 0.855132,-0.28798 1.705795,-0.59548 2.544679,-0.91626" />
    <path
       id="path2251"
       style="fill:none;fill-opacity:0.501027;stroke-width:6.61458;stroke-linecap:round;stroke-linejoin:round;paint-order:stroke fill markers"
       d="m 66.163054,101.75559 c 0,0 0,0 0,0 0.855992,-0.24147 1.715478,-0.50994 2.570616,-0.79792" />
    <path
       id="path2249"
       style="fill:none;fill-opacity:0.501027;stroke-width:6.61458;stroke-linecap:round;stroke-linejoin:round;paint-order:stroke fill markers"
       d="m 63.613051,102.39259 c 0,0 0,0 0,0 0.841457,-0.18126 1.69401,-0.39554 2.550003,-0.637" />
    <path
       id="path2247"
       style="fill:none;fill-opacity:0.501027;stroke-width:6.61458;stroke-linecap:round;stroke-linejoin:round;paint-order:stroke fill markers"
       d="m 62.360324,102.63862 c 0,0 0,0 0,0 0.41421,-0.0729 0.831998,-0.1554 1.252727,-0.24603" />
    <path
       id="path2245"
       style="fill:none;fill-opacity:0.501027;stroke-width:6.61458;stroke-linecap:round;stroke-linejoin:round;paint-order:stroke fill markers"
       d="m 61.129542,102.82944 c 0,0 0,0 0,0 0.405765,-0.0537 0.816574,-0.11786 1.230782,-0.19082" />
    <path
       id="path2243"
       style="fill:none;fill-opacity:0.501027;stroke-width:6.61458;stroke-linecap:round;stroke-linejoin:round;paint-order:stroke fill markers"
       d="m 59.927351,102.95911 c 0,0 0,0 0,0 0.395398,-0.0328 0.796424,-0.0759 1.202191,-0.12967" />
    <path
       id="path2241"
       style="fill:none;fill-opacity:0.501027;stroke-width:6.61458;stroke-linecap:round;stroke-linejoin:round;paint-order:stroke fill markers"
       d="m 58.759071,103.02361 c 0,0 0,0 0,0 0.383109,-0.0102 0.772882,-0.0319 1.16828,-0.0645" />
    <path
       id="path2239"
       style="fill:none;fill-opacity:0.501027;stroke-width:6.61458;stroke-linecap:round;stroke-linejoin:round;paint-order:stroke fill markers"
       d="m 57.630688,103.01697 c 0,0 0,0 0,0 0.368891,0.0146 0.745275,0.0166 1.128383,0.006" />
    <path
       id="path2237"
       style="fill:none;fill-opacity:0.501027;stroke-width:6.61458;stroke-linecap:round;stroke-linejoin:round;paint-order:stroke fill markers"
       d="m 56.852045,102.95719 c 0.25712,0.0239 0.513301,0.0493 0.778643,0.0598" />
    <path
       id="path2235"
       style="fill:none;fill-opacity:0.501027;stroke-width:6.61458;stroke-linecap:round;stroke-linejoin:round;paint-order:stroke fill markers"
       d="m 56.836751,102.95576 c 0.0049,3.6e-4 0.0097,8.9e-4 0.01464,8.9e-4 2.17e-4,3e-5 3.39e-4,4e-5 6.81e-4,7e-5" />
    <path
       id="path2233"
       style="fill:none;fill-opacity:0.501027;stroke-width:6.61458;stroke-linecap:round;stroke-linejoin:round;paint-order:stroke fill markers"
       d="m 54.503516,102.50959 c 0,0 0,0 0,0 a 67.887528,67.887528 0 0 0 2.333235,0.44617" />
    <path
       id="path2231"
       style="fill:none;fill-opacity:0.501027;stroke-width:6.61458;stroke-linecap:round;stroke-linejoin:round;paint-order:stroke fill markers"
       d="m 49.339679,101.02017 c 0,0 0,0 0,0 1.079532,0.29766 2.064968,0.57425 2.938322,0.82582 0.858725,0.24736 1.60233,0.46944 2.225515,0.6636" />
    <path
       id="path2229"
       style="fill:none;fill-opacity:0.501027;stroke-width:6.61458;stroke-linecap:round;stroke-linejoin:round;paint-order:stroke fill markers"
       d="M 5.4291075,58.139568 A 67.887528,67.887528 0 0 0 48.328322,100.74555 c 0.327035,0.0893 0.699497,0.18862 1.011357,0.27462" />
    <path
       id="path2227"
       style="fill:none;fill-opacity:0.501027;stroke-width:6.61458;stroke-linecap:round;stroke-linejoin:round;paint-order:stroke fill markers"
       d="m 5.4297875,58.139568 h -6.8e-4" />
    <path
       id="path2580"
       style="fill:url(#linearGradient74510);fill-opacity:1;stroke-width:6.61456;stroke-linecap:round;stroke-linejoin:round;paint-order:stroke fill markers"
       d="m 75.700136,69.672097 c -8.831154,-5.980818 -16.4997,-14.595995 -17.510239,-20.225143 1.30361,-0.975397 2.513876,-2.069686 3.615219,-3.26879 1.101358,-1.199216 2.089025,-2.498072 2.950289,-3.879857 0.861348,-1.381714 1.592582,-2.8404 2.184293,-4.357279 0.591745,-1.516994 1.041393,-3.085638 1.343156,-4.685754 0.301641,-1.599975 0.454117,-3.224495 0.455476,-4.852652 2.4e-5,-0.551188 -0.01727,-1.102243 -0.05187,-1.652346 -0.03461,-0.550062 -0.0865,-1.098897 -0.155596,-1.645702 C 68.461754,24.557868 68.3755,24.013467 68.272208,23.472176 68.169001,22.93083 68.04881,22.392858 67.911814,21.859058 67.774656,21.325293 67.620758,20.795972 67.450356,20.271874 67.280067,19.747716 67.09335,19.229037 66.890482,18.716605 66.687671,18.204067 66.468799,17.698028 66.234199,17.199237 65.999454,16.700555 65.749095,16.209377 65.483495,15.726419 65.218074,15.243638 64.93756,14.769308 64.642361,14.304135 64.347117,13.838825 64.037328,13.382903 63.713454,12.937044 63.389443,12.491009 63.051492,12.055264 62.700103,11.630459 62.348789,11.20597 61.984229,10.792624 61.606959,10.391029 61.229652,9.9892342 60.839811,9.5993932 60.438015,9.2220882 c -0.401594,-0.37727 -0.81494,-0.741832 -1.239429,-1.093146 -0.424805,-0.351387 -0.860551,-0.689339 -1.306585,-1.01335 -0.445859,-0.323874 -0.90178,-0.633664 -1.367092,-0.928908 -0.465171,-0.295198 -0.939501,-0.575714 -1.422282,-0.841133 -0.482958,-0.2656 -0.974135,-0.515959 -1.472818,-0.7507048 C 53.131019,4.3602466 52.624978,4.1413751 52.112442,3.938563 51.600009,3.7356955 51.08133,3.5489829 50.557173,3.3786928 50.033074,3.2082879 49.503753,3.0543936 48.969988,2.9172327 48.436188,2.7802368 47.898217,2.660047 47.35687,2.5568386 46.81558,2.453541 46.271178,2.3672864 45.724472,2.2981834 45.177667,2.2290947 44.628832,2.177206 44.078771,2.1425898 43.528667,2.1079994 42.977611,2.090699 42.426425,2.0907196 20.189362,2.0909103 2.1628093,20.117758 2.162987,42.35482 2.1631774,64.591623 20.18962,82.618066 42.426425,82.618256 54.616237,82.615764 68.059036,79.16974 75.700129,69.672093 Z"
       sodipodi:nodetypes="ccccsccssccccccssccccscccccccsscscc" />
    <path
       id="path52809"
       style="fill:url(#linearGradient78504);fill-opacity:1;stroke:none;stroke-width:0.265001;stroke-linecap:butt;stroke-linejoin:miter;stroke-miterlimit:4;stroke-dasharray:none;stroke-opacity:1"
       d="m 61.826393,49.159475 a 26.311683,28.678966 0 0 0 1.171606,-1.484291 26.311683,28.678966 0 0 0 1.16828,-1.725642 26.311683,28.678966 0 0 0 1.047256,-1.816224 26.311683,28.678966 0 0 0 0.918934,-1.89595 26.311683,28.678966 0 0 0 0.787277,-1.965536 26.311683,28.678966 0 0 0 0.649637,-2.024956 26.311683,28.678966 0 0 0 0.509333,-2.071342 26.311683,28.678966 0 0 0 0.36571,-2.107589 26.311683,28.678966 0 0 0 0.220093,-2.130776 26.311683,28.678966 0 0 0 0.07385,-2.143089 26.311683,28.678966 0 0 0 -0.009,-0.738523 26.311683,28.678966 0 0 0 -0.026,-0.737805 26.311683,28.678966 0 0 0 -0.04387,-0.737068 26.311683,28.678966 0 0 0 -0.06112,-0.735628 26.311683,28.678966 0 0 0 -0.07785,-0.733455 26.311683,28.678966 0 0 0 -0.09573,-0.731265 26.311683,28.678966 0 0 0 -0.113103,-0.728385 26.311683,28.678966 0 0 0 -0.130331,-0.724755 26.311683,28.678966 0 0 0 -0.146943,-0.720395 26.311683,28.678966 0 0 0 -0.164237,-0.71679 26.311683,28.678966 0 0 0 -0.18086,-0.711708 26.311683,28.678966 0 0 0 -0.197485,-0.705906 26.311683,28.678966 0 0 0 -0.214779,-0.700835 26.311683,28.678966 0 0 0 -0.230733,-0.694312 26.311683,28.678966 0 0 0 -0.246677,-0.687788 26.311683,28.678966 0 0 0 -0.263314,-0.680544 26.311683,28.678966 0 0 0 -0.279268,-0.67258 26.311683,28.678966 0 0 0 -0.295237,-0.664588 26.311683,28.678966 0 0 0 -0.310523,-0.656637 26.311683,28.678966 0 0 0 -0.326479,-0.647204 26.311683,28.678966 0 0 0 -0.341108,-0.637775 26.311683,28.678966 0 0 0 -0.3564,-0.628367 26.311683,28.678966 0 0 0 -0.37103,-0.617483 26.311683,28.678966 0 0 0 -0.384993,-0.607342 26.311683,28.678966 0 0 0 -0.160913,-0.239896 c -0.02949,0.0013 -26.751716,1.554482 -23.887571,23.407343 2.865728,21.864931 21.981883,12.824505 21.981883,12.824505 z" />
    <path
       style="fill:url(#linearGradient79088);fill-opacity:1;stroke:none;stroke-width:0.264583px;stroke-linecap:butt;stroke-linejoin:miter;stroke-opacity:1"
       d="m 63.710391,12.937046 c 0,0 15.263424,20.014454 5.458096,34.49572 0,0 -2.437606,-5.341929 -1.371112,-6.476542 0,0 -2.58384,3.177094 -1.433542,17.958628 0,0 -16.131824,-21.337866 -2.653442,-45.977806 z"
       id="path2869"
       sodipodi:nodetypes="ccccc" />
    <path
       id="path2186"
       style="fill:url(#linearGradient85990);fill-opacity:1;stroke-width:6.61458;stroke-linecap:round;stroke-linejoin:round;paint-order:stroke fill markers"
       d="m 99.133557,59.291226 c -0.41617,0.0025 -0.8269,0.0147 -1.23211,0.03657 -0.40521,0.02187 -0.80482,0.05295 -1.19887,0.0931 -0.39404,0.04015 -0.78227,0.08922 -1.16495,0.146286 -0.38268,0.05705 -0.75993,0.122212 -1.13104,0.194821 -0.37113,0.07261 -0.73646,0.152568 -1.095815,0.239377 -0.359348,0.08682 -0.712503,0.180952 -1.059899,0.280601 -0.347387,0.09964 -0.688766,0.20538 -1.023987,0.316503 -0.335221,0.111134 -0.664558,0.227182 -0.987417,0.348424 -0.322856,0.121247 -0.63923,0.247676 -0.949518,0.377681 -0.310289,0.130001 -0.614099,0.263548 -0.911618,0.400951 -0.297517,0.137405 -0.589166,0.278118 -0.873715,0.421564 -0.284554,0.143446 -0.562445,0.290062 -0.833821,0.438189 -0.271382,0.14813 -0.535916,0.298041 -0.793924,0.44949 -0.258013,0.151453 -0.509594,0.304058 -0.754032,0.457472 -0.244438,0.153417 -0.482136,0.307441 -0.712804,0.461461 -0.230665,0.154022 -0.45422,0.308193 -0.670913,0.461461 -0.433386,0.306535 -0.838533,0.610269 -1.214825,0.905634 -0.376291,0.295362 -0.723687,0.582445 -1.041278,0.855764 -0.317592,0.273318 -0.60513,0.532909 -0.862414,0.773309 -0.257283,0.240405 -0.484186,0.46167 -0.679556,0.658282 -0.195373,0.196609 -0.359529,0.368718 -0.491382,0.510666 -0.263707,0.283892 -0.39896,0.447495 -0.39896,0.447495 0,0 -0.02292,0.263711 -0.04521,0.744056 -0.0112,0.240173 -0.02247,0.534296 -0.02992,0.877041 -0.0074,0.334935 -0.01067,0.719154 -0.0086,1.141017 1.4e-5,0.0027 -1.4e-5,0.0046 0,0.0074 0.0025,0.428177 0.01093,0.897342 0.02925,1.403664 0.01841,0.50896 0.04649,1.05452 0.0871,1.631071 0.0406,0.576548 0.09395,1.184512 0.162905,1.817251 0.06897,0.632737 0.153161,1.290662 0.256663,1.968189 0.05175,0.338766 0.108676,0.682149 0.170222,1.029975 0.06154,0.347823 0.128041,0.699785 0.200143,1.055242 0.07211,0.355458 0.149955,0.714853 0.233391,1.07652 0.08344,0.361667 0.172424,0.726026 0.267967,1.092476 0.09554,0.366455 0.197451,0.734637 0.305866,1.104448 0.108418,0.369809 0.223033,0.740682 0.3451,1.112427 0.122058,0.371743 0.251168,0.744161 0.387653,1.116416 0.13648,0.372253 0.280529,0.744414 0.432203,1.115749 0.151672,0.371339 0.311115,0.742102 0.478748,1.111095 0.167635,0.368987 0.343587,0.73656 0.527954,1.101783 0.184367,0.365231 0.377283,0.728451 0.579152,1.088494 0.201873,0.360032 0.412866,0.717111 0.633014,1.070532 0.220144,0.353422 0.449671,0.702544 0.688863,1.04792 0.207014,0.298917 0.424496,0.593135 0.646313,0.885021 0.03449,0.0453 0.06556,0.0924 0.100408,0.13764 0.259012,0.335924 0.528289,0.666392 0.807888,0.991413 0.2796,0.325021 0.569433,0.644806 0.870392,0.957496 0.150479,0.15342 0.303379,0.29887 0.458135,0.43753 0.154758,0.13865 0.311949,0.27002 0.470772,0.39431 0.15882,0.12428 0.319394,0.24142 0.482072,0.35174 0.162677,0.11031 0.327057,0.21379 0.493377,0.31052 0.166325,0.0967 0.334261,0.18709 0.504017,0.27062 0.169755,0.0836 0.341672,0.16066 0.514656,0.2314 0.172979,0.0707 0.347303,0.13516 0.523302,0.19349 0.17599,0.0584 0.353145,0.1106 0.531939,0.15693 0.178802,0.0464 0.359197,0.0863 0.540589,0.12101 0.181392,0.0346 0.364128,0.0643 0.547896,0.0878 0.183778,0.0235 0.368605,0.0412 0.554554,0.0538 0.185949,0.0126 0.372628,0.0198 0.560535,0.022 0.187909,0.002 0.376869,-6.7e-4 0.566529,-0.008 0.18966,-0.008 0.38064,-0.0204 0.57184,-0.0379 0.1912,-0.0175 0.38263,-0.0397 0.57516,-0.0665 0.19253,-0.0268 0.38617,-0.0581 0.57981,-0.0937 0.19366,-0.0356 0.38725,-0.0756 0.58182,-0.11968 0.19456,-0.0441 0.38987,-0.0927 0.58514,-0.14496 0.39051,-0.10443 0.78221,-0.22462 1.17426,-0.35906 0.39205,-0.13442 0.78435,-0.28289 1.17626,-0.44417 0.39191,-0.16129 0.78352,-0.33497 1.173593,-0.51997 0.39008,-0.18501 0.77839,-0.38155 1.16497,-0.58714 0.38656,-0.20558 0.77095,-0.42063 1.15231,-0.64365 0.38137,-0.22302 0.75988,-0.453549 1.13438,-0.69086 0.37448,-0.23732 0.74516,-0.48095 1.11108,-0.729431 0.36594,-0.248472 0.7275,-0.502186 1.08318,-0.758676 0.35568,-0.2565 0.70551,-0.515937 1.04925,-0.777305 0.34375,-0.261377 0.68123,-0.524169 1.01136,-0.787281 0.33013,-0.263112 0.65263,-0.526892 0.96747,-0.788596 0.62968,-0.52343 1.2276,-1.040336 1.786,-1.539318 0.52064,-0.465242 0.99886,-0.909613 1.44621,-1.33251 0.0324,-0.03067 0.0732,-0.06603 0.105,-0.09642 0.47365,-0.449423 0.90124,-0.868009 1.27667,-1.242752 0.37543,-0.374745 0.6984,-0.705825 0.96216,-0.980771 0.52749,-0.549895 0.81859,-0.87507 0.81859,-0.87507 0.31872,-0.559106 0.0958,-1.492078 0.0958,-1.492078 0.0231,-0.488265 0.0377,-0.967384 0.0439,-1.437574 0.006,-0.470194 0.004,-0.931444 -0.005,-1.383719 -0.009,-0.452272 -0.0268,-0.896011 -0.0512,-1.330522 -0.0244,-0.434512 -0.0564,-0.859759 -0.0945,-1.276663 -0.038,-0.416904 -0.0829,-0.825351 -0.13365,-1.224801 -0.0506,-0.399448 -0.10731,-0.790118 -0.16955,-1.17227 -0.0622,-0.382148 -0.12947,-0.755396 -0.20215,-1.120402 -0.0727,-0.365008 -0.15067,-0.721853 -0.23271,-1.069872 -0.0821,-0.348014 -0.16833,-0.687489 -0.25865,-1.018671 -0.0904,-0.331181 -0.18439,-0.653631 -0.28194,-0.968136 -0.0975,-0.314503 -0.19886,-0.620953 -0.30255,-0.918933 -0.1037,-0.297977 -0.20976,-0.587453 -0.31849,-0.869061 -0.10873,-0.281608 -0.21976,-0.555127 -0.33247,-0.820523 -0.11272,-0.265393 -0.22747,-0.522649 -0.3431,-0.77198 -0.11568,-0.249333 -0.2323,-0.490681 -0.34976,-0.724109 -0.11748,-0.233429 -0.23555,-0.459222 -0.35374,-0.676898 -0.11825,-0.217677 -0.23654,-0.427607 -0.35442,-0.629688 -0.23571,-0.404161 -0.46958,-0.777031 -0.6975,-1.119738 -0.22791,-0.342712 -0.45011,-0.655054 -0.6616,-0.937552 -0.2115,-0.282493 -0.41265,-0.535162 -0.59911,-0.758682 -0.18644,-0.223518 -0.35788,-0.418028 -0.51065,-0.583808 -0.15278,-0.16578 -0.28649,-0.302976 -0.39696,-0.412254 -0.22096,-0.218565 -0.3491,-0.32515 -0.3491,-0.32515 -0.29262,-0.124105 -0.583,-0.242832 -0.87173,-0.355738 -0.28872,-0.112908 -0.5756,-0.220492 -0.86041,-0.322492 -0.22123,-0.07922 -0.44009,-0.152603 -0.65895,-0.22541 -0.14057,-0.04466 -0.25548,-0.08647 -0.40693,-0.131658 -0.003,-6.81e-4 -0.005,-0.0016 -0.008,-0.0027 -8.9e-4,-3.4e-4 -0.003,-6.81e-4 -0.005,-0.0014 -0.21915,-0.06526 -0.44941,-0.130788 -0.69018,-0.19549 -0.24241,-0.06513 -0.49495,-0.129538 -0.75803,-0.192163 -0.26307,-0.06263 -0.53669,-0.123357 -0.81918,-0.181524 -0.2825,-0.05815 -0.5744,-0.113811 -0.87506,-0.165567 -0.50638,-0.07914 -1.54152,-0.09881 -2.20224,-0.124336 -0.426923,-0.01876 -0.848513,-0.02682 -1.264693,-0.02461 z"
       sodipodi:nodetypes="cssssssssssssssssssssscssscsssssssssssssssssssscsssssssssssccssssssssssssssssssssssssssssssssssssssssssssscssccccssscccc" />
    <path
       style="display:inline;fill:#17100b;fill-opacity:1;stroke:none;stroke-width:0.264583;stroke-linecap:butt;stroke-linejoin:miter;stroke-miterlimit:4;stroke-dasharray:none;stroke-opacity:1"
       d="m 124.43423,62.404503 c -0.16169,-0.681046 1.98374,-0.688843 1.98374,-0.688843 0,0 1.97097,-0.152733 2.90872,1.454104 0.93776,1.606826 1.21999,2.165105 1.13635,3.337278 -0.0618,0.865111 -1.17988,2.319036 -1.17988,2.319036 0,0 -1.85871,0.86215 -2.00148,0.330711 -0.30818,-1.147249 -0.017,-2.222866 -0.73083,-3.48803 -0.78799,-1.396523 -1.79431,-1.906642 -2.11662,-3.264256 z"
       id="path1068-4"
       sodipodi:nodetypes="scsscsss" />
  </g>
</svg>
